<?xml version="1.0" encoding="UTF-8"?>
<!DOCTYPE svg PUBLIC "-//W3C//DTD SVG 1.1//EN" "http://www.w3.org/Graphics/SVG/1.1/DTD/svg11.dtd">
<svg xmlns="http://www.w3.org/2000/svg" version="1.1" width="800px" height="1701px" style="shape-rendering:geometricPrecision; text-rendering:geometricPrecision; image-rendering:optimizeQuality; fill-rule:evenodd; clip-rule:evenodd" xmlns:xlink="http://www.w3.org/1999/xlink">
<g><path style="opacity:0.981" fill="#000000" d="M 81.5,-0.5 C 291.5,-0.5 501.5,-0.5 711.5,-0.5C 755.828,8.59781 782.995,35.2645 793,79.5C 794.486,205.144 794.986,330.81 794.5,456.5C 796.167,456.5 797.833,456.5 799.5,456.5C 799.5,492.5 799.5,528.5 799.5,564.5C 797.833,564.5 796.167,564.5 794.5,564.5C 794.5,596.5 794.5,628.5 794.5,660.5C 796.167,660.5 797.833,660.5 799.5,660.5C 799.5,734.167 799.5,807.833 799.5,881.5C 797.833,881.5 796.167,881.5 794.5,881.5C 794.667,1125.17 794.5,1368.83 794,1612.5C 786.205,1662.13 757.705,1691.46 708.5,1700.5C 500.5,1700.5 292.5,1700.5 84.5,1700.5C 37.8272,1692.16 9.49391,1664.83 -0.5,1618.5C -0.5,1106.17 -0.5,593.833 -0.5,81.5C 9.16667,36.5 36.5,9.16667 81.5,-0.5 Z"/></g>
<g><path style="opacity:1" fill="#323232" d="M 90.5,9.5 C 294.834,9.33333 499.167,9.5 703.5,10C 747.466,17.9669 772.299,44.1336 778,88.5C 778.667,594.167 778.667,1099.83 778,1605.5C 772.205,1650.3 747.038,1676.46 702.5,1684C 498.833,1684.67 295.167,1684.67 91.5,1684C 58.3079,1679.47 34.8079,1661.97 21,1631.5C 18.5509,1625.37 16.8843,1619.04 16,1612.5C 15.3333,1102.17 15.3333,591.833 16,81.5C 21.3952,50.8883 38.2285,29.055 66.5,16C 74.37,12.869 82.37,10.7024 90.5,9.5 Z"/></g>
<g><path style="opacity:1" fill="#dcdcdc" d="M 95.5,34.5 C 295.834,34.3333 496.167,34.5 696.5,35C 730.373,42.8724 749.54,64.0391 754,98.5C 754.667,590.833 754.667,1083.17 754,1575.5C 749.54,1609.96 730.373,1631.13 696.5,1639C 496.5,1639.67 296.5,1639.67 96.5,1639C 65.3333,1631.83 46.1667,1612.67 39,1581.5C 38.3333,1085.17 38.3333,588.833 39,92.5C 46.2464,61.7549 65.0797,42.4216 95.5,34.5 Z"/></g>
<g><path style="opacity:1" fill="#343434" d="M 391.5,58.5 C 409.704,57.8755 418.871,66.5421 419,84.5C 414.969,99.6113 405.136,105.778 389.5,103C 374.123,95.4026 370.29,83.9026 378,68.5C 381.767,64.0477 386.267,60.7144 391.5,58.5 Z"/></g>
</svg>
